<?xml version="1.0" encoding="UTF-8" standalone="no"?>
<!-- Created with Inkscape (http://www.inkscape.org/) -->

<svg
   xmlns:dc="http://purl.org/dc/elements/1.1/"
   xmlns:cc="http://creativecommons.org/ns#"
   xmlns:rdf="http://www.w3.org/1999/02/22-rdf-syntax-ns#"
   xmlns:svg="http://www.w3.org/2000/svg"
   xmlns="http://www.w3.org/2000/svg"
   xmlns:sodipodi="http://sodipodi.sourceforge.net/DTD/sodipodi-0.dtd"
   xmlns:inkscape="http://www.inkscape.org/namespaces/inkscape"
   width="1024"
   height="500"
   viewBox="0 0 270.93333 132.29167"
   version="1.1"
   id="svg4539"
   inkscape:version="0.92.1 r15371"
   sodipodi:docname="banner.svg"
   inkscape:export-filename="W:\wifiauto\art\banner.png"
   inkscape:export-xdpi="96"
   inkscape:export-ydpi="96">
  <defs
     id="defs4533" />
  <sodipodi:namedview
     id="base"
     pagecolor="#ffffff"
     bordercolor="#666666"
     borderopacity="1.0"
     inkscape:pageopacity="0.0"
     inkscape:pageshadow="2"
     inkscape:zoom="0.7"
     inkscape:cx="888.99955"
     inkscape:cy="387.29375"
     inkscape:document-units="mm"
     inkscape:current-layer="layer1"
     showgrid="false"
     units="px"
     inkscape:pagecheckerboard="false"
     inkscape:window-width="1920"
     inkscape:window-height="1001"
     inkscape:window-x="-9"
     inkscape:window-y="-9"
     inkscape:window-maximized="1" />
  <metadata
     id="metadata4536">
    <rdf:RDF>
      <cc:Work
         rdf:about="">
        <dc:format>image/svg+xml</dc:format>
        <dc:type
           rdf:resource="http://purl.org/dc/dcmitype/StillImage" />
        <dc:title></dc:title>
      </cc:Work>
    </rdf:RDF>
  </metadata>
  <g
     inkscape:label="Calque 1"
     inkscape:groupmode="layer"
     id="layer1"
     transform="translate(0,-164.70831)">
    <rect
       style="opacity:0.95;fill:#fffefe;fill-opacity:1;stroke:none;stroke-width:1.90103126;stroke-miterlimit:4;stroke-dasharray:none;stroke-opacity:1"
       id="rect5100"
       width="270.93332"
       height="132.29167"
       x="0.95051563"
       y="165.65883" />
    <g
       transform="matrix(0.02175684,0,0,0.02175684,57.159083,187.54715)"
       style="clip-rule:evenodd;fill-rule:evenodd;image-rendering:optimizeQuality;shape-rendering:geometricPrecision;text-rendering:geometricPrecision"
       id="g17">
      <path
         class="fil0"
         d="m 1991,1198 c -389,0 -741,158 -995,412 l 211,212 c 200,-201 478,-325 784,-325 306,0 583,124 783,325 l 212,-212 c -255,-254 -607,-412 -995,-412 z"
         id="path7"
         inkscape:connector-curvature="0"
         style="fill:#81c7ef" />
      <path
         class="fil1"
         d="m 1991,1796 c -224,0 -426,91 -573,237 l 212,212 c 92,-93 220,-150 361,-150 141,0 268,57 360,150 l 212,-212 c -147,-146 -349,-237 -572,-237 z"
         id="path9"
         inkscape:connector-curvature="0"
         style="fill:#0f81b9" />
      <path
         class="fil2"
         d="M 1991,600 C 1437,600 936,825 573,1188 l 211,211 c 309,-309 735,-500 1207,-500 471,0 897,191 1206,500 l 211,-211 C 3045,825 2544,600 1991,600 Z"
         id="path11"
         inkscape:connector-curvature="0"
         style="fill:#cae9fb" />
      <path
         class="fil1"
         d="m 1991,3381 c 438,0 793,-355 793,-793 0,-200 -74,-382 -196,-521 l -119,119 c 91,109 146,249 146,402 0,345 -280,624 -624,624 -345,0 -625,-279 -625,-624 0,-102 24,-198 67,-283 l 63,48 -34,-245 -245,35 80,60 c -63,114 -99,245 -99,385 0,438 355,793 793,793 z"
         id="path13"
         inkscape:connector-curvature="0"
         style="fill:#0f81b9" />
      <path
         class="fil1"
         d="m 1991,2303 v 0 c 21,0 38,17 38,38 v 223 c 0,21 -17,38 -38,38 v 0 c -21,0 -39,-17 -39,-38 v -223 c 0,-21 18,-38 39,-38 z m -65,7 c -134,29 -235,149 -235,292 0,165 134,299 300,299 165,0 299,-134 299,-299 0,-143 -100,-263 -234,-292 4,9 7,20 7,31 v 40 c 95,30 164,119 164,224 0,131 -106,236 -236,236 -131,0 -236,-105 -236,-236 0,-105 68,-194 163,-224 v -40 c 0,-11 3,-22 8,-31 z"
         id="path15"
         inkscape:connector-curvature="0"
         style="fill:#0f81b9" />
    </g>
    <text
       xml:space="preserve"
       style="font-style:normal;font-weight:normal;font-size:10.58333302px;line-height:1.25;font-family:sans-serif;letter-spacing:0px;word-spacing:0px;fill:#000000;fill-opacity:1;stroke:none;stroke-width:0.26458332"
       x="140.68286"
       y="228.23518"
       id="text5104"><tspan
         sodipodi:role="line"
         id="tspan5102"
         x="140.68286"
         y="228.23518"
         style="font-style:normal;font-variant:normal;font-weight:bold;font-stretch:normal;font-size:19.75555611px;line-height:1;font-family:'Lucida Sans';-inkscape-font-specification:'Lucida Sans Bold';stroke-width:0.26458332">Wi-Fi</tspan><tspan
         sodipodi:role="line"
         x="140.68286"
         y="247.99074"
         style="font-style:normal;font-variant:normal;font-weight:bold;font-stretch:normal;font-size:19.75555611px;line-height:1;font-family:'Lucida Sans';-inkscape-font-specification:'Lucida Sans Bold';stroke-width:0.26458332"
         id="tspan5106">Auto</tspan></text>
  </g>
</svg>
