<?xml version="1.0" encoding="UTF-8" standalone="no"?>
<!-- Creator: CorelDRAW X7 -->

<svg
   xmlns:dc="http://purl.org/dc/elements/1.1/"
   xmlns:cc="http://creativecommons.org/ns#"
   xmlns:rdf="http://www.w3.org/1999/02/22-rdf-syntax-ns#"
   xmlns:svg="http://www.w3.org/2000/svg"
   xmlns="http://www.w3.org/2000/svg"
   xmlns:sodipodi="http://sodipodi.sourceforge.net/DTD/sodipodi-0.dtd"
   xmlns:inkscape="http://www.inkscape.org/namespaces/inkscape"
   xml:space="preserve"
   width="86.614mm"
   height="86.614mm"
   version="1.1"
   style="shape-rendering:geometricPrecision; text-rendering:geometricPrecision; image-rendering:optimizeQuality; fill-rule:evenodd; clip-rule:evenodd"
   viewBox="0 0 3981 3981"
   id="svg23"
   sodipodi:docname="logo.svg"
   inkscape:version="0.92.1 r15371"><metadata
     id="metadata27"><rdf:RDF><cc:Work
         rdf:about=""><dc:format>image/svg+xml</dc:format><dc:type
           rdf:resource="http://purl.org/dc/dcmitype/StillImage" /><dc:title></dc:title></cc:Work></rdf:RDF></metadata><sodipodi:namedview
     pagecolor="#ffffff"
     bordercolor="#666666"
     borderopacity="1"
     objecttolerance="10"
     gridtolerance="10"
     guidetolerance="10"
     inkscape:pageopacity="0"
     inkscape:pageshadow="2"
     inkscape:window-width="1920"
     inkscape:window-height="1001"
     id="namedview25"
     showgrid="false"
     inkscape:zoom="0.72091888"
     inkscape:cx="163.68"
     inkscape:cy="163.68"
     inkscape:window-x="-9"
     inkscape:window-y="-9"
     inkscape:window-maximized="1"
     inkscape:current-layer="svg23" /><defs
     id="defs4"><style
       type="text/css"
       id="style2"><![CDATA[
    .fil3 {fill:none}
    .fil2 {fill:#CAE9FB}
    .fil0 {fill:#81C7EF}
    .fil1 {fill:#0F81B9}
   ]]></style></defs><g
     id="g17"><path
       class="fil0"
       d="m 1991,1198 c -389,0 -741,158 -995,412 l 211,212 c 200,-201 478,-325 784,-325 306,0 583,124 783,325 l 212,-212 c -255,-254 -607,-412 -995,-412 z"
       id="path7"
       inkscape:connector-curvature="0"
       style="fill:#81c7ef" /><path
       class="fil1"
       d="m 1991,1796 c -224,0 -426,91 -573,237 l 212,212 c 92,-93 220,-150 361,-150 141,0 268,57 360,150 l 212,-212 c -147,-146 -349,-237 -572,-237 z"
       id="path9"
       inkscape:connector-curvature="0"
       style="fill:#0f81b9" /><path
       class="fil2"
       d="M 1991,600 C 1437,600 936,825 573,1188 l 211,211 c 309,-309 735,-500 1207,-500 471,0 897,191 1206,500 l 211,-211 C 3045,825 2544,600 1991,600 Z"
       id="path11"
       inkscape:connector-curvature="0"
       style="fill:#cae9fb" /><path
       class="fil1"
       d="m 1991,3381 c 438,0 793,-355 793,-793 0,-200 -74,-382 -196,-521 l -119,119 c 91,109 146,249 146,402 0,345 -280,624 -624,624 -345,0 -625,-279 -625,-624 0,-102 24,-198 67,-283 l 63,48 -34,-245 -245,35 80,60 c -63,114 -99,245 -99,385 0,438 355,793 793,793 z"
       id="path13"
       inkscape:connector-curvature="0"
       style="fill:#0f81b9" /><path
       class="fil1"
       d="m 1991,2303 v 0 c 21,0 38,17 38,38 v 223 c 0,21 -17,38 -38,38 v 0 c -21,0 -39,-17 -39,-38 v -223 c 0,-21 18,-38 39,-38 z m -65,7 c -134,29 -235,149 -235,292 0,165 134,299 300,299 165,0 299,-134 299,-299 0,-143 -100,-263 -234,-292 4,9 7,20 7,31 v 40 c 95,30 164,119 164,224 0,131 -106,236 -236,236 -131,0 -236,-105 -236,-236 0,-105 68,-194 163,-224 v -40 c 0,-11 3,-22 8,-31 z"
       id="path15"
       inkscape:connector-curvature="0"
       style="fill:#0f81b9" /></g></svg>